<svg width="100" height="100" viewBox="0 0 100 100" xmlns="http://www.w3.org/2000/svg" aria-label="عم غريب" role="img">
  <!-- Background -->
  <rect width="100" height="100" rx="20" fill="#1B2A4A" />

  <!-- Neck -->
  <rect x="44" y="80" width="12" height="14" rx="2" fill="#C8845A" />

  <!-- Face -->
  <circle cx="50" cy="55" r="28" fill="#D4956A" />

  <!-- Ears -->
  <ellipse cx="22" cy="55" rx="4" ry="5" fill="#C8845A" />
  <ellipse cx="78" cy="55" rx="4" ry="5" fill="#C8845A" />

  <!-- Tarboush (طربوش) -->
  <rect x="32" y="18" width="36" height="22" rx="4" fill="#C0392B" />
  <ellipse cx="50" cy="40" rx="20" ry="5" fill="#A93226" />
  <ellipse cx="50" cy="18" rx="18" ry="3" fill="#CD3D2F" />
  <path d="M 68 18 Q 74 22 72 32" stroke="#1A1A1A" stroke-width="1.8" fill="none" stroke-linecap="round" />
  <circle cx="72" cy="33" r="2" fill="#1A1A1A" />

  <!-- Eyebrows -->
  <path d="M 38 46 Q 43 43.5 48 46" stroke="#8D9091" stroke-width="2.5" fill="none" stroke-linecap="round" />
  <path d="M 52 46 Q 57 43.5 62 46" stroke="#8D9091" stroke-width="2.5" fill="none" stroke-linecap="round" />

  <!-- Eyes -->
  <ellipse cx="43" cy="52" rx="3" ry="2.5" fill="#3D2B1F" />
  <ellipse cx="57" cy="52" rx="3" ry="2.5" fill="#3D2B1F" />
  <circle cx="44.2" cy="51" r="0.8" fill="#FFFFFF" opacity="0.7" />
  <circle cx="58.2" cy="51" r="0.8" fill="#FFFFFF" opacity="0.7" />

  <!-- Nose -->
  <path d="M 48 56 Q 46 61 48 63 Q 50 64.5 52 63 Q 54 61 52 56" stroke="#B07A55" stroke-width="1.2" fill="none" stroke-linecap="round" />

  <!-- Smile -->
  <path d="M 42 64 Q 50 70 58 64" stroke="#8B5E3C" stroke-width="2" fill="none" stroke-linecap="round" />

  <!-- Beard -->
  <path d="M 24 62 Q 24 78 50 82 Q 76 78 76 62 Q 70 68 60 70 Q 55 73 50 73 Q 45 73 40 70 Q 30 68 24 62 Z" fill="#D0D3D4" opacity="0.92" />
  <path d="M 43 65 Q 47 67 50 66 Q 53 67 57 65" stroke="#A8AEB0" stroke-width="1.5" fill="none" stroke-linecap="round" />
</svg>
